# xmcd
#
# Track frame offsets:
#	150
#	12762
#	25762
#	40597
#	53098
#	67872
#	79966
#	91332
#
# Disc length: 1416 seconds
#
# Revision: 0
# Processed by: cddbd v1.5.2PL0 Copyright (c) Steve Scherf et al.
# Submitted via: FairStars CD Ripper 1.90
#
DISCID=51058608
DTITLE=Kalie Shorr - Y2K Mixtape
DYEAR=2016
DGENRE=Country
TTITLE0=Class Of 2000
TTITLE1=Yesterday's News
TTITLE2=Rearview
TTITLE3=Taken
TTITLE4=Outta My Mind
TTITLE5=Strangers
TTITLE6=Break The Breakup
TTITLE7=Fight Like A Girl
EXTD=
EXTT0=
EXTT1=
EXTT2=
EXTT3=
EXTT4=
EXTT5=
EXTT6=
EXTT7=
PLAYORDER=
